# xmcd
#
# Track frame offsets:
#	150
#	10358
#	22658
#	36391
#	45879
#	55749
#	70412
#	80365
#	89335
#	100180
#	109870
#	120820
#
# Disc length: 1780 seconds
#
# Revision: 0
# Processed by: cddbd v1.5.2PL0 Copyright (c) Steve Scherf et al.
# Submitted via: audiograbber 1.83.01
#
DISCID=8606f20c
DTITLE=Jim Reeves - The Best Of
DYEAR=1964
DGENRE=Country
TTITLE0=He'll Have To Go
TTITLE1=Four Walls
TTITLE2=Guilty
TTITLE3=Blue Boy
TTITLE4=I'm Gettin' Better 
TTITLE5=The Blizzard
TTITLE6=Am I Losing You?
TTITLE7=Billy Bayou
TTITLE8=Anna Marie
TTITLE9=Stand At Your Window
TTITLE10=Adios Amigo
TTITLE11=Danny Boy
EXTD=
EXTT0=
EXTT1=
EXTT2=
EXTT3=
EXTT4=
EXTT5=
EXTT6=
EXTT7=
EXTT8=
EXTT9=
EXTT10=
EXTT11=
PLAYORDER=
